<mxfile host="app.diagrams.net" modified="2023-05-29T18:49:48.207Z" agent="Mozilla/5.0 (Macintosh; Intel Mac OS X 10_15_7) AppleWebKit/605.1.15 (KHTML, like Gecko) Version/16.4 Safari/605.1.15" etag="XRovHWvYvrBFLpA0tT2m" version="21.3.5" type="device">
  <diagram name="Страница 1" id="6shtNbx5STcTsp4v1JuH">
    <mxGraphModel dx="954" dy="526" grid="1" gridSize="10" guides="1" tooltips="1" connect="1" arrows="1" fold="1" page="1" pageScale="1" pageWidth="827" pageHeight="1169" math="0" shadow="0">
      <root>
        <mxCell id="0" />
        <mxCell id="1" parent="0" />
        <mxCell id="I8sq_Yy_pg9ki4pfbljo-8" value="" style="edgeStyle=orthogonalEdgeStyle;rounded=0;orthogonalLoop=1;jettySize=auto;html=1;entryX=0;entryY=0.5;entryDx=0;entryDy=0;" edge="1" parent="1" source="I8sq_Yy_pg9ki4pfbljo-4" target="I8sq_Yy_pg9ki4pfbljo-7">
          <mxGeometry relative="1" as="geometry" />
        </mxCell>
        <mxCell id="I8sq_Yy_pg9ki4pfbljo-4" value="Собаки&lt;br&gt;(Dogs)" style="rounded=1;whiteSpace=wrap;html=1;" vertex="1" parent="1">
          <mxGeometry x="40" y="310" width="120" height="60" as="geometry" />
        </mxCell>
        <mxCell id="I8sq_Yy_pg9ki4pfbljo-9" style="edgeStyle=orthogonalEdgeStyle;rounded=0;orthogonalLoop=1;jettySize=auto;html=1;entryX=0;entryY=0.5;entryDx=0;entryDy=0;" edge="1" parent="1" source="I8sq_Yy_pg9ki4pfbljo-5" target="I8sq_Yy_pg9ki4pfbljo-7">
          <mxGeometry relative="1" as="geometry">
            <mxPoint x="210" y="430" as="targetPoint" />
          </mxGeometry>
        </mxCell>
        <mxCell id="I8sq_Yy_pg9ki4pfbljo-5" value="Кошки&lt;br&gt;(Cats)" style="rounded=1;whiteSpace=wrap;html=1;" vertex="1" parent="1">
          <mxGeometry x="40" y="410" width="120" height="60" as="geometry" />
        </mxCell>
        <mxCell id="I8sq_Yy_pg9ki4pfbljo-10" style="edgeStyle=orthogonalEdgeStyle;rounded=0;orthogonalLoop=1;jettySize=auto;html=1;entryX=0;entryY=0.5;entryDx=0;entryDy=0;" edge="1" parent="1" source="I8sq_Yy_pg9ki4pfbljo-6" target="I8sq_Yy_pg9ki4pfbljo-7">
          <mxGeometry relative="1" as="geometry" />
        </mxCell>
        <mxCell id="I8sq_Yy_pg9ki4pfbljo-6" value="Хомяки&lt;br&gt;(Hamsters)" style="rounded=1;whiteSpace=wrap;html=1;" vertex="1" parent="1">
          <mxGeometry x="40" y="510" width="120" height="60" as="geometry" />
        </mxCell>
        <mxCell id="I8sq_Yy_pg9ki4pfbljo-12" value="" style="edgeStyle=orthogonalEdgeStyle;rounded=0;orthogonalLoop=1;jettySize=auto;html=1;" edge="1" parent="1" source="I8sq_Yy_pg9ki4pfbljo-7" target="I8sq_Yy_pg9ki4pfbljo-11">
          <mxGeometry relative="1" as="geometry" />
        </mxCell>
        <mxCell id="I8sq_Yy_pg9ki4pfbljo-7" value="Домашние животные&lt;br&gt;(Pets)" style="whiteSpace=wrap;html=1;rounded=1;" vertex="1" parent="1">
          <mxGeometry x="240" y="410" width="120" height="60" as="geometry" />
        </mxCell>
        <mxCell id="I8sq_Yy_pg9ki4pfbljo-11" value="Животные&lt;br&gt;(Animals)" style="whiteSpace=wrap;html=1;rounded=1;" vertex="1" parent="1">
          <mxGeometry x="400" y="410" width="120" height="60" as="geometry" />
        </mxCell>
        <mxCell id="I8sq_Yy_pg9ki4pfbljo-14" value="" style="edgeStyle=orthogonalEdgeStyle;rounded=0;orthogonalLoop=1;jettySize=auto;html=1;" edge="1" parent="1" source="I8sq_Yy_pg9ki4pfbljo-13" target="I8sq_Yy_pg9ki4pfbljo-11">
          <mxGeometry relative="1" as="geometry" />
        </mxCell>
        <mxCell id="I8sq_Yy_pg9ki4pfbljo-13" value="Вьючные&amp;nbsp;&lt;br&gt;животные&lt;br&gt;(Pack animals)" style="rounded=1;whiteSpace=wrap;html=1;" vertex="1" parent="1">
          <mxGeometry x="560" y="410" width="120" height="60" as="geometry" />
        </mxCell>
        <mxCell id="I8sq_Yy_pg9ki4pfbljo-16" value="" style="edgeStyle=orthogonalEdgeStyle;rounded=0;orthogonalLoop=1;jettySize=auto;html=1;" edge="1" parent="1" source="I8sq_Yy_pg9ki4pfbljo-15" target="I8sq_Yy_pg9ki4pfbljo-13">
          <mxGeometry relative="1" as="geometry" />
        </mxCell>
        <mxCell id="I8sq_Yy_pg9ki4pfbljo-15" value="Верблюды&lt;br&gt;(Camels)" style="rounded=1;whiteSpace=wrap;html=1;" vertex="1" parent="1">
          <mxGeometry x="760" y="410" width="120" height="60" as="geometry" />
        </mxCell>
        <mxCell id="I8sq_Yy_pg9ki4pfbljo-20" style="edgeStyle=orthogonalEdgeStyle;rounded=0;orthogonalLoop=1;jettySize=auto;html=1;exitX=0;exitY=0.5;exitDx=0;exitDy=0;entryX=1;entryY=0.5;entryDx=0;entryDy=0;" edge="1" parent="1" source="I8sq_Yy_pg9ki4pfbljo-17" target="I8sq_Yy_pg9ki4pfbljo-13">
          <mxGeometry relative="1" as="geometry" />
        </mxCell>
        <mxCell id="I8sq_Yy_pg9ki4pfbljo-17" value="Лошади&lt;br&gt;(Horses)" style="rounded=1;whiteSpace=wrap;html=1;" vertex="1" parent="1">
          <mxGeometry x="760" y="310" width="120" height="60" as="geometry" />
        </mxCell>
        <mxCell id="I8sq_Yy_pg9ki4pfbljo-19" style="edgeStyle=orthogonalEdgeStyle;rounded=0;orthogonalLoop=1;jettySize=auto;html=1;exitX=0;exitY=0.5;exitDx=0;exitDy=0;entryX=1;entryY=0.5;entryDx=0;entryDy=0;" edge="1" parent="1" source="I8sq_Yy_pg9ki4pfbljo-18" target="I8sq_Yy_pg9ki4pfbljo-13">
          <mxGeometry relative="1" as="geometry" />
        </mxCell>
        <mxCell id="I8sq_Yy_pg9ki4pfbljo-18" value="Ослы&lt;br&gt;(Donkeys)" style="rounded=1;whiteSpace=wrap;html=1;" vertex="1" parent="1">
          <mxGeometry x="760" y="510" width="120" height="60" as="geometry" />
        </mxCell>
      </root>
    </mxGraphModel>
  </diagram>
</mxfile>
